<?xml version="1.0" encoding="UTF-8"?>
<svg id="Layer_2" data-name="Layer 2" xmlns="http://www.w3.org/2000/svg" viewBox="0 0 315.77 168.3">
  <defs>
    <style>
      .cls-1 {
        fill: #075577;
      }

      .cls-2 {
        fill: #4a96a8;
      }
    </style>
  </defs>
  <g id="Layer_1-2" data-name="Layer 1">
    <g>
      <path class="cls-1" d="M315.76,114.64v13.06c-1.16.11-2.33.21-3.53.21h-3.89c-15.68,0-28.4-12.71-28.4-28.4V0h13.24v25.22h22.57v13.24h-22.57v60.04c0,8.93,7.24,16.17,16.17,16.17h2.87c1.21,0,2.35.05,3.53-.03"/>
      <path class="cls-2" d="M56.06,133.34C25.15,133.34,0,108.19,0,77.28S25.15,21.22,56.06,21.22s56.06,25.15,56.06,56.06-25.15,56.06-56.06,56.06M56.06,26.97c-27.74,0-50.31,22.57-50.31,50.32s22.57,50.31,50.31,50.31,50.31-22.57,50.31-50.31-22.57-50.32-50.31-50.32"/>
      <path class="cls-2" d="M53.26,45.82v55.83h-5.75v-31.43c-6.86,13.59-19.3,23.9-34.31,27.88-.88-1.72-1.67-3.5-2.34-5.34,21.01-5.15,36.65-24.15,36.65-46.74v-.2h5.75Z"/>
      <path class="cls-2" d="M53.26,110.77v13.49c-1.95-.11-3.86-.34-5.75-.68v-12.81h5.75Z"/>
      <path class="cls-2" d="M101.25,92.77c-.68,1.84-1.45,3.61-2.34,5.34-15.01-3.99-27.46-14.3-34.31-27.9v31.45h-5.74v-55.83h5.74v.2c0,22.58,15.64,41.59,36.65,46.74"/>
      <path class="cls-2" d="M64.61,110.77v12.81c-1.88.34-3.8.56-5.74.68v-13.49h5.74Z"/>
      <path class="cls-2" d="M96.9,101.65c-1.26,2.02-2.67,3.94-4.21,5.74H19.43c-1.55-1.8-2.95-3.72-4.21-5.74h81.68Z"/>
      <rect class="cls-1" x="250.99" width="13.24" height="128.12"/>
      <path class="cls-1" d="M235.26,25.29s0,0,0,0h-13.22s0,0,0,0t0,0s0,0,0,0v53.07s0,0,0,0c0,.1,0,.19,0,.29,0,0,0,0,0,0,0,.02,0,.05,0,.07,0,.03,0,.07,0,.11-.08,3.52-.75,6.91-1.92,10.06-3.49,9.42-11.43,16.72-21.28,19.15-.04,0-.08.02-.11.03-.14.03-.28.07-.42.1-.07.02-.15.03-.22.05-.31.07-.63.14-.95.2,0,0,0,0-.01,0-.13.02-.26.05-.39.07-.06.01-.12.02-.18.03-.07.01-.14.02-.2.03-.03,0-.06.01-.1.02-.07.01-.14.02-.21.03-.04,0-.08.01-.12.02-.01,0-.03,0-.04,0-.04,0-.08.01-.12.01-.13.02-.26.04-.39.05-.05,0-.09.01-.14.02-.07,0-.13.01-.2.02-.12.01-.23.03-.35.04-.26.03-.51.05-.77.07,0,0,0,0,0,0-.09,0-.18.01-.27.02-.05,0-.11,0-.16.01-.09,0-.18.01-.27.02-.04,0-.08,0-.11,0,0,0,0,0,0,0-.5.03-1.01.04-1.52.04h0c-.51,0-1.02-.01-1.52-.04-.04,0-.08,0-.11,0-.09,0-.18,0-.27-.01-.06,0-.11,0-.17-.01-.09,0-.17-.01-.26-.02-.26-.02-.51-.04-.77-.07,0,0,0,0,0,0-.15-.02-.29-.03-.43-.05-.04,0-.07,0-.11-.01-.05,0-.09-.01-.14-.02,0,0,0,0,0,0-.13-.02-.26-.03-.39-.05,0,0,0,0,0,0-.09-.01-.19-.03-.28-.04-.17-.03-.34-.05-.51-.08-.05,0-.1-.02-.16-.03-.14-.02-.28-.05-.41-.07-.32-.06-.64-.13-.96-.2-.07-.02-.15-.03-.22-.05-.14-.03-.28-.06-.42-.1-.04,0-.07-.02-.11-.03-9.85-2.44-17.79-9.73-21.28-19.15-1.17-3.15-1.84-6.53-1.92-10.06,0,0,0,0,0,0,0-.05,0-.1,0-.15,0,0,0-.02,0-.02,0-.1,0-.2,0-.3,0,0,0,0,0,0V25.3s0,0,0,0h0s0,0,0,0c0,0,0,0,0,0h0s0,0,0,0c0,0,0,0,0,0,0,0,0,0,0,0h-13.22s0,0,0,0v52.76c0,9.73,3.22,18.8,8.64,26.16.04.06.09.12.13.18.9,1.21,1.86,2.38,2.88,3.49.21.23.42.46.64.68.2.21.4.42.61.63.02.02.03.03.05.05.13.13.25.25.38.38,4.89,4.8,10.88,8.48,17.53,10.57,0,0,0,0,0,0,.03,0,.06.02.09.03.27.08.53.17.8.25.06.02.11.03.17.05.12.04.24.07.37.11,0,0,0,0,0,0,0,0,.02,0,.03,0,.44.12.88.24,1.33.35.07.02.14.03.21.05,1.2.29,2.45.53,3.73.71,0,0,.01,0,.02,0,.23.03.45.06.68.09.29.04.58.07.87.1.16.02.33.04.49.05.07,0,.15.01.22.02.16.01.31.03.47.04.55.04,1.1.08,1.67.1.15,0,.31.01.46.02.38.01.77.02,1.15.02.43,0,.86,0,1.29-.02.15,0,.31-.01.46-.02.56-.02,1.11-.05,1.67-.1.16-.01.31-.03.46-.04.08,0,.15-.01.23-.02,0,0,0,0,0,0,.46-.04.91-.09,1.36-.15.23-.03.45-.06.68-.09,1.29-.18,2.53-.42,3.74-.71,0,0,0,0,0,0,.11-.03.22-.05.32-.08.41-.1.82-.21,1.22-.32.01,0,.02,0,.03,0,0,0,0,0,0,0,.13-.03.25-.07.37-.11.06-.02.11-.03.17-.05.16-.05.32-.1.48-.14.14-.04.27-.09.41-.13,6.65-2.1,12.64-5.77,17.53-10.57.03-.03.06-.06.09-.09v15.08c0,.06,0,.12,0,.17,0,.06,0,.12,0,.17-.16,14.74-10.87,27-24.91,29.59-.19.04-.38.07-.57.1-.17.03-.34.06-.51.08-.09.01-.18.03-.28.04-.13.02-.26.04-.39.05-.05,0-.09.01-.14.02-.18.02-.36.04-.54.06-.26.03-.51.05-.77.07-.23.02-.46.03-.7.05-.04,0-.08,0-.11,0-.51.03-1.02.04-1.53.04h-43.7v13.24h43.7c.41,0,.82,0,1.22-.02.15,0,.31-.01.46-.02.56-.02,1.11-.05,1.67-.1.23-.02.46-.04.7-.06.46-.04.91-.1,1.37-.15.23-.03.45-.06.68-.09,1.27-.18,2.52-.42,3.75-.71.52-.12,1.03-.26,1.54-.4.01,0,.02,0,.03,0,.18-.05.36-.1.54-.15.3-.09.59-.18.89-.27,6.65-2.1,12.64-5.77,17.53-10.57,8.21-8.06,13.33-19.3,13.33-31.57V25.3s0,0,0,0Z"/>
    </g>
  </g>
</svg>